<svg width="22" height="18" viewBox="0 0 22 18" fill="none" xmlns="http://www.w3.org/2000/svg">
<path d="M18.6028 2.96661C18.9612 3.32499 18.9612 3.89471 18.6028 4.25309L8.18234 14.6735C7.82397 15.0319 7.25424 15.0319 6.89587 14.6735L3.03644 10.8141C2.67806 10.4557 2.67806 9.88602 3.03644 9.52764C3.39481 9.16927 3.96454 9.16927 4.32291 9.52764L7.5391 12.7438L17.3163 2.96661C17.6747 2.60824 18.2444 2.60824 18.6028 2.96661ZM16.6639 1.01852L7.5391 10.1433L4.97534 7.57955C4.25859 6.8628 3.09157 6.8628 2.37482 7.57955L1.08834 8.86602C0.371593 9.58278 0.371593 10.7498 1.08834 11.4665L6.23425 16.6124C6.951 17.3292 8.11802 17.3292 8.83477 16.6124L20.5509 4.90552C21.2676 4.18877 21.2676 3.02175 20.5509 2.305L19.2644 1.01852C18.5385 0.301769 17.3806 0.301769 16.6639 1.01852Z" fill="#3C2665"/>
</svg>
