<?xml version="1.0" encoding="UTF-8" standalone="no"?>
<!-- Generator: Adobe Illustrator 27.2.0, SVG Export Plug-In . SVG Version: 6.00 Build 0)  -->

<svg
   version="1.1"
   id="Capa_1"
   x="0px"
   y="0px"
   viewBox="0 0 152490.25 9370.2399"
   xml:space="preserve"
   sodipodi:docname="want-logo.svg"
   width="152490.25"
   height="9370.2402"
   xmlns:inkscape="http://www.inkscape.org/namespaces/inkscape"
   xmlns:sodipodi="http://sodipodi.sourceforge.net/DTD/sodipodi-0.dtd"
   xmlns="http://www.w3.org/2000/svg"
   xmlns:svg="http://www.w3.org/2000/svg"><defs
   id="defs114" /><sodipodi:namedview
   id="namedview112"
   pagecolor="#ffffff"
   bordercolor="#000000"
   borderopacity="0.25"
   inkscape:showpageshadow="2"
   inkscape:pageopacity="0.0"
   inkscape:pagecheckerboard="0"
   inkscape:deskcolor="#d1d1d1"
   showgrid="false" />
<style
   type="text/css"
   id="style93">
	.st0{fill:#4FC68D;}
</style>
<g
   id="g109">
	<g
   id="g105"
   style="fill:var(--color-primary);fill-opacity:1">
		<g
   id="g101"
   style="fill:var(--color-primary);fill-opacity:1">
			<path
   class="st0"
   d="m 193.8,20.6 c 1.4,-1 3,-1.5 4.7,-1.5 2.5,0 4.8,0.9 6.8,2.6 2,1.7 3,3.8 3,6.3 0,1.2 -0.3,2.4 -0.9,3.8 L 188.7,72 c -0.9,1.9 -2.1,3.4 -3.9,4.5 -1.8,1.1 -3.6,1.6 -5.7,1.6 -2.1,0 -4,-0.5 -5.7,-1.6 -1.7,-1 -3,-2.5 -3.8,-4.5 L 158.6,47.6 148.2,72 c -0.8,1.9 -2,3.4 -3.8,4.5 -1.7,1 -3.6,1.6 -5.7,1.6 -2.1,0 -4,-0.5 -5.7,-1.6 -1.7,-1 -3.1,-2.5 -4,-4.5 L 110.4,31.8 c -0.5,-1.2 -0.8,-2.4 -0.8,-3.7 0,-2.5 1.1,-4.7 3.2,-6.4 2.1,-1.7 4.5,-2.6 7.1,-2.6 1.9,0 3.5,0.5 5,1.5 1.5,1 2.6,2.5 3.4,4.5 l 11,26.8 11.2,-26.6 c 0.8,-1.9 2,-3.4 3.6,-4.4 1.6,-1 3.4,-1.5 5.2,-1.5 1.8,0 3.6,0.5 5.2,1.5 1.6,1 2.8,2.5 3.6,4.4 l 11.6,26.8 10.8,-27 c 0.8,-2.1 1.9,-3.6 3.3,-4.5 z"
   id="path95"
   style="fill:var(--color-primary);fill-opacity:1" />
			<path
   class="st0"
   d="m 330.5,25 c 3.3,4 5,10.2 5,18.5 v 25 c 0,2.9 -0.9,5.2 -2.8,7 -1.8,1.7 -4.4,2.5 -7.5,2.5 -3.1,0 -5.7,-0.9 -7.5,-2.5 -1.8,-1.7 -2.8,-4 -2.8,-7 V 44.4 c 0,-3.4 -0.6,-5.9 -1.8,-7.4 -1.2,-1.5 -3,-2.3 -5.4,-2.3 -3.1,0 -5.5,1 -7.4,3 -1.9,2 -2.7,4.6 -2.7,7.9 v 22.9 c 0,2.9 -0.9,5.2 -2.8,7 -1.8,1.7 -4.4,2.5 -7.5,2.5 -3.1,0 -5.7,-0.9 -7.5,-2.5 -1.8,-1.7 -2.8,-4 -2.8,-7 V 28.4 c 0,-2.7 1,-4.9 2.9,-6.7 1.9,-1.7 4.4,-2.6 7.5,-2.6 3.1,0 5.3,0.8 7,2.4 1.7,1.6 2.6,3.8 2.6,6.4 2,-2.9 4.6,-5.2 7.8,-6.7 3.2,-1.5 6.7,-2.3 10.5,-2.3 6.8,0 11.9,2 15.2,6.1 z"
   id="path97"
   style="fill:var(--color-primary);fill-opacity:1" />
			<path
   class="st0"
   d="m 390.5,70.2 c 0,2.7 -1,4.7 -3.1,6 -2.1,1.3 -5.1,1.9 -8.9,1.6 l -3.2,-0.2 c -7,-0.5 -12.2,-2.6 -15.8,-6.3 -3.6,-3.7 -5.4,-8.8 -5.4,-15.4 V 34.4 h -3.4 c -6.2,0 -9.3,-2.5 -9.3,-7.6 0,-5.1 3.1,-7.5 9.3,-7.5 h 3.4 v -5.5 c 0,-2.9 0.9,-5.3 2.8,-7 1.9,-1.7 4.4,-2.6 7.5,-2.6 3.1,0 5.7,0.9 7.5,2.6 1.8,1.7 2.8,4.1 2.8,7 v 5.5 h 6.4 c 6.2,0 9.3,2.5 9.3,7.5 0,5 -3.1,7.6 -9.3,7.6 h -6.4 v 23.2 c 0,1.5 0.4,2.7 1.3,3.7 0.9,1 2,1.5 3.4,1.6 l 3.4,0.2 c 5.1,0.5 7.7,2.8 7.7,7.1 z"
   id="path99"
   style="fill:var(--color-primary);fill-opacity:1" />
		</g>
		<path
   class="st0"
   d="m 260.8,19.1 c -3.3,0 -6.3,1.6 -8.2,4.1 -4.3,-2.5 -9.3,-3.9 -14.7,-3.9 -16.3,0 -29.5,13.2 -29.5,29.5 0,16.3 13.2,29.5 29.5,29.5 5.4,0 10.4,-1.5 14.8,-4 1.9,2.4 4.8,4 8.1,4 5.7,0 10.3,-4.6 10.3,-10.3 V 29.4 c 0,-5.6 -4.7,-10.3 -10.3,-10.3 z m -22.9,43.8 c -7.9,0 -14.4,-6.4 -14.4,-14.4 0,-8 6.4,-14.4 14.4,-14.4 8,0 14.4,6.4 14.4,14.4 0,8 -6.5,14.4 -14.4,14.4 z"
   id="path103"
   style="fill:var(--color-primary);fill-opacity:1" />
	</g>
	<path
   class="st0"
   d="m 49.2,0 c -0.9,0 -1.8,0 -2.7,0.1 -0.1,0 -0.3,0 -0.5,0 -0.8,0 -1.5,0.1 -2.3,0.2 -0.1,0 -0.2,0 -0.3,0 -0.8,0.1 -1.7,0.2 -2.5,0.4 0,0 0,0 -0.1,0 -0.8,0.2 -1.7,0.3 -2.5,0.5 0.6,0.1 1.2,0.2 1.8,0.5 2.2,0.8 4.1,2.5 5.1,4.8 l -8.3,3.8 12.5,27.5 c 1.1,2.3 0,5.1 -2.3,6.2 v 0 c -2.5,1.1 -5.5,0 -6.6,-2.5 l -5.9,-13 -9.6,4.4 c -4.4,2 -9.5,0 -11.5,-4.3 v 0 L 9.6,19.9 C 8.9,20.8 8.2,21.8 7.6,22.8 7.5,22.9 7.5,23 7.4,23.1 7.2,23.5 6.9,23.9 6.7,24.3 6.6,24.5 6.5,24.7 6.4,24.9 6.2,25.3 6,25.7 5.8,26.1 5.7,26.3 5.6,26.5 5.4,26.8 5.2,27.2 5,27.6 4.8,28 4.7,28.2 4.6,28.4 4.5,28.6 4.2,29.3 3.9,30 3.6,30.7 3.5,31 3.4,31.3 3.2,31.6 3.1,31.9 3,32.3 2.8,32.6 2.6,32.9 2.6,33.3 2.4,33.6 2.3,33.9 2.2,34.3 2.1,34.6 2,35 1.9,35.4 1.8,35.8 1.7,36.1 1.6,36.4 1.6,36.7 1.5,37.3 1.3,37.9 1.2,38.4 1,38.6 1,38.8 0.9,39 c -0.1,0.6 -0.2,1.2 -0.3,1.8 0,0.3 -0.1,0.5 -0.1,0.8 -0.1,0.5 -0.1,1 -0.2,1.5 0,0.3 -0.1,0.5 -0.1,0.8 0,0.5 -0.1,1 -0.1,1.5 0,0.2 0,0.5 0,0.7 C 0,46.9 0,47.6 0,48.4 c 0,26.7 22,48.4 49.2,48.4 0.9,0 1.8,0 2.7,-0.1 0.1,0 0.3,0 0.4,0 0.8,0 1.5,-0.1 2.3,-0.2 0.1,0 0.1,0 0.2,0 0.8,-0.1 1.7,-0.2 2.5,-0.3 0,0 0,0 0,0 0.9,-0.1 1.7,-0.3 2.6,-0.5 -0.7,-0.1 -1.4,-0.2 -2.1,-0.5 -2.2,-0.8 -4.1,-2.5 -5.1,-4.8 L 61,86.6 48.6,59.4 c -1.1,-2.5 0,-5.5 2.5,-6.6 2.3,-1.1 5.1,0 6.1,2.3 l 6,13.3 L 73,64 c 4.4,-2 9.5,0 11.5,4.3 v 0 l 4.1,9 c 0.1,-0.1 0.1,-0.2 0.2,-0.2 0.4,-0.5 0.7,-1 1.1,-1.5 0.1,-0.2 0.3,-0.4 0.4,-0.6 0.3,-0.4 0.5,-0.8 0.8,-1.2 0.1,-0.2 0.3,-0.5 0.4,-0.7 0.2,-0.4 0.5,-0.8 0.7,-1.2 0.1,-0.2 0.3,-0.5 0.4,-0.7 0.3,-0.5 0.5,-1 0.8,-1.5 0.1,-0.1 0.1,-0.3 0.2,-0.4 0.3,-0.6 0.6,-1.3 0.9,-1.9 0.1,-0.2 0.2,-0.4 0.3,-0.6 0.2,-0.5 0.4,-0.9 0.6,-1.4 0.1,-0.2 0.2,-0.5 0.3,-0.8 0.2,-0.5 0.3,-0.9 0.5,-1.4 0.1,-0.2 0.2,-0.5 0.2,-0.8 0.1,-0.5 0.3,-1 0.4,-1.5 0,-0.2 0.1,-0.4 0.2,-0.6 0.2,-0.7 0.4,-1.4 0.5,-2.1 0,-0.1 0.1,-0.3 0.1,-0.5 0.1,-0.6 0.2,-1.1 0.3,-1.7 0,-0.2 0.1,-0.5 0.1,-0.8 0.1,-0.5 0.1,-1 0.2,-1.5 0,-0.3 0.1,-0.5 0.1,-0.8 0,-0.5 0.1,-1 0.1,-1.6 0,-0.2 0,-0.5 0,-0.7 0,-0.8 0.1,-1.5 0.1,-2.3 C 98.4,21.7 76.3,0 49.2,0 Z m -16.5,45.2 9.9,4.6 -10.9,-1.2 z m -0.9,8.3 10.6,-2.9 -9.1,6.1 z m 8.2,8.8 -3.2,-1.5 6.3,-9 z m 17.2,-27.6 3.2,1.5 -6.3,9 z m 6.8,4.8 1.5,3.2 -10.6,2.9 z m 1.3,12 -9.9,-4.6 10.9,1.2 z"
   id="path107"
   style="fill:#39b007;fill-opacity:1" />
</g>
</svg>
