<?xml version="1.0" encoding="UTF-8" standalone="no"?>
<svg
   id="Capa_1"
   data-name="Capa 1"
   viewBox="0 0 1531.51 911.62"
   version="1.1"
   sodipodi:docname="want-logo.svg"
   inkscape:version="1.2.2 (732a01da63, 2022-12-09)"
   xmlns:inkscape="http://www.inkscape.org/namespaces/inkscape"
   xmlns:sodipodi="http://sodipodi.sourceforge.net/DTD/sodipodi-0.dtd"
   xmlns:xlink="http://www.w3.org/1999/xlink"
   xmlns="http://www.w3.org/2000/svg"
   xmlns:svg="http://www.w3.org/2000/svg">
  <sodipodi:namedview
     id="namedview451"
     pagecolor="#ffffff"
     bordercolor="#000000"
     borderopacity="0.25"
     inkscape:showpageshadow="2"
     inkscape:pageopacity="0.0"
     inkscape:pagecheckerboard="0"
     inkscape:deskcolor="#d1d1d1"
     showgrid="false"
     inkscape:zoom="0.39503496"
     inkscape:cx="577.1641"
     inkscape:cy="116.44539"
     inkscape:window-width="1920"
     inkscape:window-height="1017"
     inkscape:window-x="-8"
     inkscape:window-y="-8"
     inkscape:window-maximized="1"
     inkscape:current-layer="Capa_1" />
  <defs
     id="defs264">
    <style
       id="style224">
      .cls-1 {
        fill: #fff;
      }

      .cls-2 {
        fill: none;
        stroke: #7c7c7c;
        stroke-miterlimit: 10;
        stroke-width: .25px;
      }

      .cls-3 {
        fill: #4fc68d;
      }

      .cls-4 {
        fill: url(#Degradado_sin_nombre_59);
      }

      .cls-5 {
        fill: url(#Degradado_sin_nombre_59-2);
      }

      .cls-6 {
        fill: #fcfcfc;
      }
    </style>
    <linearGradient
       id="Degradado_sin_nombre_59"
       data-name="Degradado sin nombre 59"
       x1="16.76"
       y1="501.76"
       x2="115.13"
       y2="501.76"
       gradientUnits="userSpaceOnUse">
      <stop
         offset="0"
         stop-color="#4fc68d"
         id="stop226" />
      <stop
         offset=".21"
         stop-color="#4fc68d"
         id="stop228" />
      <stop
         offset=".25"
         stop-color="#4fc68d"
         id="stop230" />
      <stop
         offset=".25"
         stop-color="#4dc48b"
         id="stop232" />
      <stop
         offset=".25"
         stop-color="#49bc84"
         id="stop234" />
      <stop
         offset=".25"
         stop-color="#42b079"
         id="stop236" />
      <stop
         offset=".25"
         stop-color="#3ba36c"
         id="stop238" />
      <stop
         offset=".5"
         stop-color="#3aa26b"
         id="stop240" />
      <stop
         offset=".5"
         stop-color="#389f69"
         id="stop242" />
      <stop
         offset=".5"
         stop-color="#349663"
         id="stop244" />
      <stop
         offset=".5"
         stop-color="#2e875a"
         id="stop246" />
      <stop
         offset=".5"
         stop-color="#2a7f55"
         id="stop248" />
      <stop
         offset=".75"
         stop-color="#2a7e54"
         id="stop250" />
      <stop
         offset=".75"
         stop-color="#2a7951"
         id="stop252" />
      <stop
         offset=".75"
         stop-color="#2a6c48"
         id="stop254" />
      <stop
         offset=".75"
         stop-color="#2b5e40"
         id="stop256" />
      <stop
         offset="1"
         stop-color="#2b5f40"
         id="stop258" />
      <stop
         offset="1"
         stop-color="#316d4d"
         id="stop260" />
    </linearGradient>
    <linearGradient
       id="Degradado_sin_nombre_59-2"
       data-name="Degradado sin nombre 59"
       x1="15.52"
       y1="344.26"
       x2="113.89"
       y2="344.26"
       xlink:href="#Degradado_sin_nombre_59" />
  </defs>
  <g
     id="g334">
    <g
       id="g330">
      <path
         class="cls-1"
         d="m1173.29,188.61c1.43-.96,2.99-1.45,4.69-1.45,2.55,0,4.83.87,6.83,2.61,2.01,1.74,3.01,3.84,3.01,6.31,0,1.16-.31,2.43-.93,3.82l-18.77,40.2c-.85,1.93-2.14,3.42-3.88,4.46s-3.65,1.56-5.73,1.56-3.98-.52-5.68-1.56c-1.7-1.04-2.97-2.53-3.82-4.46l-11-24.44-10.31,24.44c-.77,1.93-2.03,3.42-3.76,4.46-1.74,1.04-3.65,1.56-5.73,1.56s-4-.52-5.73-1.56c-1.74-1.04-3.07-2.53-4-4.46l-18.65-40.2c-.54-1.16-.81-2.39-.81-3.71,0-2.55,1.06-4.69,3.19-6.43,2.12-1.74,4.5-2.61,7.12-2.61,1.85,0,3.53.48,5.04,1.45,1.51.97,2.64,2.45,3.42,4.46l11,26.76,11.24-26.64c.77-1.93,1.97-3.4,3.59-4.4,1.62-1,3.36-1.51,5.21-1.51s3.59.5,5.21,1.51c1.62,1,2.82,2.47,3.59,4.4l11.58,26.76,10.77-26.99c.77-1.93,1.87-3.38,3.3-4.34Z"
         id="path324" />
      <path
         class="cls-1"
         d="m1309.95,193.01c3.32,4.05,4.98,10.21,4.98,18.48v25.02c0,2.94-.93,5.25-2.78,6.95-1.85,1.7-4.36,2.55-7.53,2.55s-5.68-.85-7.53-2.55c-1.85-1.7-2.78-4.01-2.78-6.95v-24.09c0-3.4-.6-5.87-1.79-7.41-1.2-1.54-2.99-2.32-5.39-2.32-3.09,0-5.54.98-7.36,2.95-1.82,1.97-2.72,4.62-2.72,7.94v22.94c0,2.94-.93,5.25-2.78,6.95-1.85,1.7-4.36,2.55-7.53,2.55s-5.68-.85-7.53-2.55c-1.85-1.7-2.78-4.01-2.78-6.95v-40.08c0-2.7.96-4.92,2.9-6.66,1.93-1.74,4.44-2.61,7.53-2.61s5.27.81,7.01,2.43c1.74,1.62,2.61,3.75,2.61,6.37,2.01-2.93,4.59-5.17,7.76-6.72,3.17-1.54,6.68-2.32,10.54-2.32,6.79,0,11.85,2.03,15.17,6.08Z"
         id="path326" />
      <path
         class="cls-1"
         d="m1369.95,238.25c0,2.7-1.04,4.71-3.13,6.02-2.08,1.31-5.06,1.85-8.92,1.62l-3.24-.23c-6.95-.54-12.22-2.64-15.81-6.31-3.59-3.67-5.39-8.78-5.39-15.35v-21.5h-3.36c-6.18,0-9.27-2.55-9.27-7.65s3.09-7.53,9.27-7.53h3.36v-5.53c0-2.93.93-5.27,2.78-7.01s4.36-2.61,7.53-2.61,5.68.87,7.53,2.61,2.78,4.07,2.78,7.01v5.53h6.37c6.18,0,9.27,2.51,9.27,7.53s-3.09,7.65-9.27,7.65h-6.37v23.24c0,1.47.44,2.7,1.33,3.71.89,1,2.03,1.55,3.42,1.62l3.36.23c5.17.31,7.76,2.63,7.76,6.95Z"
         id="path328" />
    </g>
    <path
       class="cls-1"
       d="m1240.22,187.18c-3.35,0-6.32,1.61-8.21,4.09-4.32-2.48-9.33-3.91-14.68-3.91-16.3,0-29.51,13.21-29.51,29.51s13.21,29.51,29.51,29.51c5.38,0,10.42-1.45,14.77-3.97,1.89,2.41,4.82,3.97,8.12,3.97,5.69,0,10.31-4.62,10.31-10.31v-38.57c0-5.69-4.62-10.31-10.31-10.31Zm-22.88,43.74c-7.93,0-14.36-6.43-14.36-14.36s6.43-14.36,14.36-14.36,14.36,6.43,14.36,14.36-6.43,14.36-14.36,14.36Z"
       id="path332" />
  </g>
  <path
     class="cls-1"
     d="m1028.65,168.07c-3.75,0-7.4.43-10.91,1.21.63.1,1.24.25,1.83.47,2.2.83,4.09,2.5,5.14,4.82l-8.3,3.77,12.46,27.45c1.06,2.34.03,5.1-2.32,6.17-2.5,1.14-5.45.03-6.59-2.48l-5.91-13.02-9.65,4.38c-4.37,1.98-9.51.05-11.49-4.32h0s-3.94-8.67-3.94-8.67c-5.98,8.01-9.52,17.9-9.52,28.61,0,26.73,22.02,48.39,49.18,48.39,3.68,0,7.27-.41,10.72-1.17-.75-.09-1.48-.25-2.18-.52-2.2-.83-4.09-2.5-5.14-4.82l8.3-3.77-12.32-27.14c-1.14-2.51-.03-5.47,2.48-6.61,2.34-1.06,5.09-.03,6.15,2.31l6.05,13.32,9.65-4.38c4.37-1.98,9.51-.05,11.49,4.32h0s0,.01,0,.01l4.14,9.1c6.18-8.09,9.85-18.15,9.85-29.06,0-26.73-22.02-48.39-49.18-48.39Zm-16.61,45.15l9.93,4.59-10.88-1.17.95-3.42Zm-.87,8.33l10.56-2.85-9.09,6.09-1.47-3.24Zm8.19,8.82l-3.21-1.54,6.27-8.97-3.06,10.5Zm17.26-27.62l3.21,1.54-6.27,8.97,3.06-10.5Zm6.85,4.82l1.47,3.24-10.56,2.85,9.09-6.09Zm1.27,11.97l-9.93-4.59,10.88,1.17-.95,3.42Z"
     id="path384" />
  <g
     id="g448"
     transform="matrix(3.6403533,0,0,3.7370372,-1048.8405,-381.10046)">
    <g
       id="g444">
      <g
         id="g440">
        <path
           class="cls-3"
           d="m 497.51,198.43 c 1.43,-0.96 2.99,-1.45 4.69,-1.45 2.55,0 4.83,0.87 6.83,2.61 2.01,1.74 3.01,3.84 3.01,6.31 0,1.16 -0.31,2.43 -0.93,3.82 l -18.77,40.2 c -0.85,1.93 -2.14,3.42 -3.88,4.46 -1.74,1.04 -3.65,1.56 -5.73,1.56 -2.08,0 -3.98,-0.52 -5.68,-1.56 -1.7,-1.04 -2.97,-2.53 -3.82,-4.46 l -11,-24.44 -10.31,24.44 c -0.77,1.93 -2.03,3.42 -3.76,4.46 -1.74,1.04 -3.65,1.56 -5.73,1.56 -2.08,0 -4,-0.52 -5.73,-1.56 -1.74,-1.04 -3.07,-2.53 -4,-4.46 l -18.65,-40.2 c -0.54,-1.16 -0.81,-2.39 -0.81,-3.71 0,-2.55 1.06,-4.69 3.19,-6.43 2.12,-1.74 4.5,-2.61 7.12,-2.61 1.85,0 3.53,0.48 5.04,1.45 1.51,0.97 2.64,2.45 3.42,4.46 l 11,26.76 11.24,-26.64 c 0.77,-1.93 1.97,-3.4 3.59,-4.4 1.62,-1 3.36,-1.51 5.21,-1.51 1.85,0 3.59,0.5 5.21,1.51 1.62,1 2.82,2.47 3.59,4.4 l 11.58,26.76 10.77,-26.99 c 0.77,-1.93 1.87,-3.38 3.3,-4.34 z"
           id="path434" />
        <path
           class="cls-3"
           d="m 634.17,202.83 c 3.32,4.05 4.98,10.21 4.98,18.48 v 25.02 c 0,2.94 -0.93,5.25 -2.78,6.95 -1.85,1.7 -4.36,2.55 -7.53,2.55 -3.17,0 -5.68,-0.85 -7.53,-2.55 -1.85,-1.7 -2.78,-4.01 -2.78,-6.95 v -24.09 c 0,-3.4 -0.6,-5.87 -1.79,-7.41 -1.2,-1.54 -2.99,-2.32 -5.39,-2.32 -3.09,0 -5.54,0.98 -7.36,2.95 -1.82,1.97 -2.72,4.62 -2.72,7.94 v 22.94 c 0,2.94 -0.93,5.25 -2.78,6.95 -1.85,1.7 -4.36,2.55 -7.53,2.55 -3.17,0 -5.68,-0.85 -7.53,-2.55 -1.85,-1.7 -2.78,-4.01 -2.78,-6.95 v -40.08 c 0,-2.7 0.96,-4.92 2.9,-6.66 1.93,-1.74 4.44,-2.61 7.53,-2.61 3.09,0 5.27,0.81 7.01,2.43 1.74,1.62 2.61,3.75 2.61,6.37 2.01,-2.93 4.59,-5.17 7.76,-6.72 3.17,-1.54 6.68,-2.32 10.54,-2.32 6.79,0 11.85,2.03 15.17,6.08 z"
           id="path436" />
        <path
           class="cls-3"
           d="m 694.17,248.06 c 0,2.7 -1.04,4.71 -3.13,6.02 -2.08,1.31 -5.06,1.85 -8.92,1.62 l -3.24,-0.23 c -6.95,-0.54 -12.22,-2.64 -15.81,-6.31 -3.59,-3.67 -5.39,-8.78 -5.39,-15.35 v -21.5 h -3.36 c -6.18,0 -9.27,-2.55 -9.27,-7.65 0,-5.1 3.09,-7.53 9.27,-7.53 h 3.36 v -5.53 c 0,-2.93 0.93,-5.27 2.78,-7.01 1.85,-1.74 4.36,-2.61 7.53,-2.61 3.17,0 5.68,0.87 7.53,2.61 1.85,1.74 2.78,4.07 2.78,7.01 v 5.53 h 6.37 c 6.18,0 9.27,2.51 9.27,7.53 0,5.02 -3.09,7.65 -9.27,7.65 h -6.37 v 23.24 c 0,1.47 0.44,2.7 1.33,3.71 0.89,1 2.03,1.55 3.42,1.62 l 3.36,0.23 c 5.17,0.31 7.76,2.63 7.76,6.95 z"
           id="path438" />
      </g>
      <path
         class="cls-3"
         d="m 564.44,196.99 c -3.35,0 -6.32,1.61 -8.21,4.09 -4.32,-2.48 -9.33,-3.91 -14.68,-3.91 -16.3,0 -29.51,13.21 -29.51,29.51 0,16.3 13.21,29.51 29.51,29.51 5.38,0 10.42,-1.45 14.77,-3.97 1.89,2.41 4.82,3.97 8.12,3.97 5.69,0 10.31,-4.62 10.31,-10.31 v -38.57 c 0,-5.69 -4.62,-10.31 -10.31,-10.31 z m -22.88,43.74 c -7.93,0 -14.36,-6.43 -14.36,-14.36 0,-7.93 6.43,-14.36 14.36,-14.36 7.93,0 14.36,6.43 14.36,14.36 0,7.93 -6.43,14.36 -14.36,14.36 z"
         id="path442" />
    </g>
    <path
       class="cls-3"
       d="m 352.87,177.89 c -0.91,0 -1.82,0.03 -2.71,0.08 -0.15,0 -0.31,0.02 -0.46,0.03 -0.77,0.05 -1.54,0.11 -2.3,0.19 -0.09,0.01 -0.19,0.02 -0.28,0.03 -0.83,0.1 -1.66,0.21 -2.48,0.35 -0.02,0 -0.05,0 -0.07,0.01 -0.88,0.15 -1.75,0.32 -2.61,0.51 0.63,0.1 1.24,0.25 1.83,0.47 2.2,0.83 4.09,2.5 5.14,4.82 l -8.3,3.77 12.46,27.45 c 1.06,2.34 0.03,5.1 -2.32,6.17 v 0 c -2.5,1.14 -5.45,0.03 -6.59,-2.48 l -5.91,-13.02 -9.65,4.38 c -4.37,1.98 -9.51,0.05 -11.49,-4.32 v 0 c 0,0 -3.94,-8.67 -3.94,-8.67 -0.69,0.93 -1.35,1.89 -1.98,2.87 -0.06,0.09 -0.12,0.18 -0.17,0.27 -0.25,0.4 -0.5,0.81 -0.74,1.22 -0.11,0.19 -0.23,0.39 -0.34,0.58 -0.22,0.39 -0.44,0.78 -0.65,1.18 -0.12,0.22 -0.23,0.44 -0.35,0.67 -0.2,0.39 -0.4,0.79 -0.6,1.19 -0.1,0.22 -0.2,0.43 -0.3,0.65 -0.32,0.69 -0.62,1.4 -0.91,2.11 -0.12,0.31 -0.25,0.61 -0.37,0.92 -0.13,0.34 -0.25,0.69 -0.37,1.03 -0.12,0.34 -0.24,0.68 -0.35,1.03 -0.11,0.33 -0.22,0.67 -0.32,1 -0.12,0.38 -0.23,0.77 -0.33,1.16 -0.08,0.3 -0.17,0.61 -0.25,0.91 -0.15,0.58 -0.28,1.16 -0.41,1.74 -0.05,0.23 -0.1,0.45 -0.14,0.68 -0.12,0.59 -0.23,1.19 -0.33,1.79 -0.04,0.26 -0.08,0.52 -0.11,0.78 -0.07,0.49 -0.13,0.97 -0.19,1.47 -0.03,0.27 -0.06,0.55 -0.08,0.82 -0.05,0.51 -0.09,1.03 -0.12,1.54 -0.01,0.24 -0.03,0.48 -0.04,0.72 -0.04,0.76 -0.06,1.51 -0.06,2.28 0,26.73 22.02,48.39 49.18,48.39 0.9,0 1.8,-0.03 2.69,-0.07 0.14,0 0.28,-0.02 0.42,-0.03 0.77,-0.05 1.54,-0.11 2.3,-0.19 0.08,0 0.15,-0.02 0.23,-0.03 0.83,-0.1 1.66,-0.21 2.48,-0.34 0.01,0 0.02,0 0.03,0 0.87,-0.14 1.74,-0.31 2.6,-0.5 -0.73,-0.09 -1.44,-0.25 -2.12,-0.51 -2.2,-0.83 -4.09,-2.5 -5.14,-4.82 l 8.3,-3.77 -12.32,-27.14 c -1.14,-2.51 -0.03,-5.47 2.48,-6.61 2.34,-1.06 5.09,-0.03 6.15,2.31 l 6.05,13.32 9.65,-4.38 c 4.37,-1.98 9.51,-0.05 11.49,4.32 v 0 c 0,0 4.11,9.04 4.11,9.04 0.06,-0.08 0.12,-0.17 0.18,-0.25 0.37,-0.49 0.73,-0.99 1.08,-1.49 0.15,-0.21 0.29,-0.42 0.43,-0.64 0.26,-0.39 0.52,-0.78 0.76,-1.17 0.15,-0.24 0.29,-0.47 0.44,-0.71 0.24,-0.4 0.47,-0.79 0.7,-1.2 0.13,-0.23 0.26,-0.46 0.39,-0.69 0.27,-0.49 0.52,-0.99 0.78,-1.49 0.07,-0.14 0.15,-0.28 0.22,-0.43 0.31,-0.64 0.61,-1.29 0.89,-1.94 0.09,-0.2 0.17,-0.41 0.26,-0.62 0.19,-0.47 0.38,-0.93 0.56,-1.41 0.1,-0.25 0.19,-0.5 0.28,-0.76 0.16,-0.45 0.32,-0.9 0.46,-1.35 0.08,-0.25 0.17,-0.51 0.24,-0.76 0.15,-0.5 0.3,-1.01 0.44,-1.52 0.05,-0.2 0.11,-0.4 0.17,-0.6 0.18,-0.71 0.35,-1.42 0.5,-2.14 0.03,-0.15 0.06,-0.31 0.09,-0.46 0.11,-0.58 0.22,-1.15 0.31,-1.74 0.04,-0.25 0.08,-0.51 0.11,-0.76 0.07,-0.5 0.14,-0.99 0.19,-1.49 0.03,-0.27 0.06,-0.54 0.08,-0.81 0.05,-0.52 0.09,-1.04 0.12,-1.56 0.01,-0.24 0.03,-0.48 0.05,-0.72 0.04,-0.76 0.06,-1.52 0.06,-2.29 0,-26.73 -22.02,-48.39 -49.18,-48.39 z m -16.52,45.15 9.93,4.59 -10.88,-1.17 z m -0.87,8.33 10.56,-2.85 -9.09,6.09 z m 8.19,8.82 -3.21,-1.54 6.27,-8.97 -3.06,10.5 z m 17.17,-27.62 3.21,1.54 -6.27,8.97 3.06,-10.5 z m 6.85,4.82 1.47,3.24 -10.56,2.85 z m 1.27,11.97 -9.93,-4.59 10.88,1.17 z"
       id="path446" />
  </g>
</svg>
