<?xml version="1.0" encoding="UTF-8" standalone="no"?>
<!-- Created with Inkscape (http://www.inkscape.org/) -->

<svg
   width="57.168514mm"
   height="54.280861mm"
   viewBox="0 0 57.168514 54.280861"
   version="1.1"
   id="svg5"
   xml:space="preserve"
   xmlns:inkscape="http://www.inkscape.org/namespaces/inkscape"
   xmlns:sodipodi="http://sodipodi.sourceforge.net/DTD/sodipodi-0.dtd"
   xmlns="http://www.w3.org/2000/svg"
   xmlns:svg="http://www.w3.org/2000/svg"><sodipodi:namedview
     id="namedview7"
     pagecolor="#ffffff"
     bordercolor="#000000"
     borderopacity="0.25"
     inkscape:showpageshadow="2"
     inkscape:pageopacity="0.0"
     inkscape:pagecheckerboard="0"
     inkscape:deskcolor="#d1d1d1"
     inkscape:document-units="mm"
     showgrid="false"
     inkscape:lockguides="true"
     inkscape:zoom="2.8284271"
     inkscape:cx="203.2932"
     inkscape:cy="297.69195"
     inkscape:window-width="1920"
     inkscape:window-height="1009"
     inkscape:window-x="1072"
     inkscape:window-y="491"
     inkscape:window-maximized="1"
     inkscape:current-layer="g458" /><defs
     id="defs2" /><g
     inkscape:label="Layer 1"
     inkscape:groupmode="layer"
     id="layer1"
     transform="translate(-59.569799,-75.45873)"><g
       style="fill:currentColor"
       id="g458"
       transform="matrix(1.1029445,0,0,1.0036056,38.284448,79.958275)"><path
         style="fill:#f0f6ff;fill-opacity:1;stroke:#2d75ff;stroke-width:0.780491;stroke-dasharray:none;stroke-opacity:1"
         id="path681"
         sodipodi:type="arc"
         sodipodi:cx="45.214973"
         sodipodi:cy="22.559551"
         sodipodi:rx="25.52216"
         sodipodi:ry="26.64868"
         sodipodi:start="0.16958427"
         sodipodi:end="0.16957651"
         sodipodi:open="true"
         sodipodi:arc-type="arc"
         d="M 70.371018,27.057118 A 25.52216,26.64868 0 0 1 40.907581,48.825965 25.52216,26.64868 0 0 1 20.058912,18.062086 25.52216,26.64868 0 0 1 49.522268,-3.7068798 25.52216,26.64868 0 0 1 70.371051,27.056914"
         inkscape:export-filename="want-new-logo.svg"
         inkscape:export-xdpi="96"
         inkscape:export-ydpi="96" /><g
         id="g688"
         transform="matrix(1.1457541,-0.37398988,0.23580449,0.87249873,-12.861299,19.27628)"
         style="fill:#2d75ff;fill-opacity:1"><path
           style="fill:#2d75ff;fill-opacity:1;stroke-width:0.0376497"
           d="m 38.470345,40.49105 c -0.132368,-0.496131 -0.104074,-1.034981 0.07932,-1.510671 0.386953,-1.003687 1.441193,-1.677038 2.521193,-1.610305 0.133932,0.0083 0.357646,0.04432 0.497146,0.08011 0.139499,0.03578 0.256252,0.05712 0.259452,0.04741 0.0032,-0.0097 0.01058,-0.120546 0.01639,-0.246301 0.04248,-0.918283 0.606407,-1.709701 1.521645,-2.135486 0.203917,-0.09486 0.458397,-0.187722 0.577552,-0.210738 0.26143,-0.0505 0.653027,-0.04482 0.932388,0.0135 l 0.209518,0.04374 -0.05632,-0.271655 c -0.117244,-0.565529 -0.07986,-0.966441 0.1365,-1.464009 0.277108,-0.637259 0.657561,-1.018625 1.315198,-1.318357 0.556693,-0.253724 0.984857,-0.31074 1.509961,-0.201067 l 0.210447,0.04396 -1.292842,-2.841562 -1.292842,-2.84156 -0.02699,-0.272538 c -0.09094,-0.918332 0.160024,-1.589513 0.813151,-2.174629 0.51595,-0.462224 1.090525,-0.671228 1.7876,-0.650243 0.87594,0.02637 1.544246,0.422099 2.058983,1.219205 0.106341,0.164676 0.895028,1.837309 2.388788,5.066096 l 2.230031,4.820253 0.269648,-0.0055 c 1.067325,-0.02122 2.270055,0.51478 2.955527,1.317014 0.179416,0.20998 0.251811,0.341377 0.700209,1.270912 0.693424,1.43748 0.929374,2.134705 1.068496,3.157398 0.171732,1.262403 0.0197,2.411982 -0.491666,3.717585 -0.722775,1.845382 -1.82435,3.090022 -3.6575,4.132503 -0.623467,0.354558 -3.931666,1.878482 -4.649749,2.14191 -2.011677,0.737983 -3.767187,0.766644 -5.685613,0.09327 -0.748915,-0.263052 -1.347494,-0.55978 -1.886934,-0.935402 -0.89287,-0.621722 -1.664193,-1.474549 -2.248479,-2.486073 -0.252092,-0.436423 -2.701806,-5.732032 -2.770175,-5.988468 z m 2.434591,3.072745 c 0.504987,0.46361 1.169293,0.55157 1.840413,0.243688 0.657481,-0.301626 1.018236,-0.865103 0.984122,-1.537132 -0.01207,-0.23781 -0.01356,-0.241431 -0.773732,-1.884557 l -0.761637,-1.646291 -0.210553,-0.187027 c -0.292905,-0.260181 -0.719305,-0.408756 -1.111706,-0.387364 -0.249299,0.0136 -0.333786,0.03698 -0.652976,0.18069 -0.297053,0.133754 -0.398646,0.196782 -0.535352,0.332144 -0.408374,0.404355 -0.575341,1.005027 -0.423401,1.523193 0.02895,0.0987 0.37033,0.858455 0.758641,1.688352 l 0.706015,1.508906 z m 1.079011,2.51526 c 0.931972,1.625151 2.262047,2.667626 4.101408,3.214551 1.188017,0.353255 2.363847,0.373078 3.713007,0.0626 l 0.502591,-0.11566 2.682134,-1.224564 2.682135,-1.224562 0.427761,-0.306525 c 1.327411,-0.9512 2.154571,-2.090786 2.681966,-3.694969 0.458252,-1.393877 0.421546,-2.856177 -0.108629,-4.327437 -0.199012,-0.552269 -0.828906,-1.912059 -1.029697,-2.222938 -0.31934,-0.49435 -0.77454,-0.901003 -1.2643,-1.129471 C 55.96336,34.9193 55.39642,34.855999 54.78021,34.932314 l -0.321761,0.03984 -2.926134,1.335526 -2.926134,1.335525 -0.14949,0.159982 c -0.29693,0.317771 -0.447445,0.707674 -0.443256,1.148243 0.0019,0.191963 0.02685,0.276725 0.180056,0.609707 0.149245,0.324326 0.204187,0.410602 0.340629,0.534561 0.345549,0.313954 0.767677,0.449664 1.26882,0.407908 0.478042,-0.107349 0.483817,-0.102748 0.5597,0.155777 0.165196,0.615562 0.08908,0.539984 -0.38388,0.63465 -0.600054,0.120105 -1.083258,-0.0176 -1.602636,-0.300907 l -0.254327,-0.138722 -0.105146,0.221458 c -0.284035,0.598233 -0.576765,0.944029 -1.050663,1.24113 -0.595951,0.373622 -1.426991,0.462951 -2.083392,0.223945 -0.138479,-0.05042 -0.263541,-0.08631 -0.277916,-0.07975 -0.01438,0.0065 -0.04776,0.127105 -0.0742,0.267871 -0.133856,0.712726 -0.536729,1.281238 -1.204698,1.70001 -0.5251,0.3292 -1.192679,0.462266 -1.735709,0.345965 -0.296864,-0.06358 -0.293996,-0.08822 -0.05081,0.436403 0.122592,0.264291 0.322643,0.654738 0.444708,0.867592 z m 2.302549,-4.957477 c 0.229883,0.361087 0.434777,0.528574 0.812349,0.66405 0.276995,0.09939 0.381691,0.114817 0.63633,0.09379 0.255233,-0.02108 0.358579,-0.04973 0.635679,-0.176289 0.535362,-0.244507 0.844869,-0.603635 0.958352,-1.112037 0.11799,-0.528576 0.04419,-0.756587 -0.874755,-2.702613 l -0.72537,-1.536113 -0.199664,-0.197008 c -0.346324,-0.341715 -0.734108,-0.485952 -1.235793,-0.459666 -0.214061,0.01121 -0.309119,0.0388 -0.618959,0.179563 -0.316506,0.143793 -0.390581,0.191972 -0.547193,0.355885 -0.413761,0.433043 -0.550859,1.007018 -0.375341,1.571403 0.09314,0.299495 1.368899,3.059124 1.534386,3.319024 z m 3.11848,-3.235129 c 0.0069,-0.0033 0.05188,-0.08047 0.09984,-0.171775 0.122955,-0.234043 0.321057,-0.467769 0.570084,-0.6726 0.177441,-0.14595 0.374788,-0.253243 1.157096,-0.629108 l 0.943169,-0.453147 -0.682085,-1.443244 -0.682084,-1.443241 -0.19375,-0.171143 c -0.522723,-0.461743 -1.151813,-0.542903 -1.825173,-0.23547 -0.500394,0.228463 -0.830052,0.602572 -0.938518,1.065072 -0.05587,0.238208 -0.05553,0.590236 7.78e-4,0.77285 0.04198,0.136233 1.53373,3.38954 1.550676,3.381803 z m 5.051366,-2.957381 1.515902,-0.692105 -2.306106,-4.959714 -2.306106,-4.959712 -0.160881,-0.141894 c -0.33775,-0.29789 -0.727222,-0.434948 -1.176064,-0.413864 -0.306315,0.01436 -0.951773,0.299409 -1.170003,0.516648 -0.400851,0.399032 -0.560732,0.99899 -0.40852,1.532984 0.02822,0.09902 1.051345,2.346729 2.273596,4.994902 l 2.222273,4.814865 z"
           id="path486"
           sodipodi:nodetypes="csssssssscsssscccsssssccsssssssssccsssscsssssscscsscccssscsscccsscscccscsssssssccccssssscsssssccsssscccssssssccccssssscc" /><path
           style="fill:#2d75ff;fill-opacity:1;stroke-width:0.0385298"
           d="m 33.220581,4.5499352 c -0.248342,1.0152432 -0.3412,3.5716263 1.043632,5.8758428 0.618426,0.927385 1.021943,1.619753 1.809098,1.940658 0.377418,0.153865 0.86644,0.240983 1.399706,0.425626 0.185099,0.06406 0.441321,0.143412 0.569374,0.176289 l 0.232824,0.05979 1.795235,3.523348 c 2.586492,5.036439 2.589496,5.119808 3.031223,5.571296 0.823308,0.996752 2.702761,1.597698 3.713518,0.890311 1.035679,-0.72483 1.424488,-2.19875 1.22367,-2.711762 -0.05947,-0.151915 -0.743708,-1.532458 -1.791343,-3.573695 -0.937606,-1.826985 -1.696805,-3.323666 -1.68691,-3.325998 0.0098,-0.0022 0.135181,0.01251 0.278555,0.03254 0.775363,0.109322 1.511071,-0.03683 2.164596,-0.430046 0.623351,-0.375063 0.989495,-0.951589 1.067121,-1.680286 l 0.02886,-0.27087 0.330137,-0.0022 c 0.655886,-0.0043 1.479297,-0.321046 1.94499,-0.748049 0.34386,-0.3152745 0.615491,-0.8342296 0.689653,-1.317589 0.03397,-0.2213965 0.05227,-0.2544865 0.142996,-0.2585461 0.17332,-0.00769 0.514258,-0.086535 0.761061,-0.1759525 C 53.010671,8.1732433 53.660086,7.2336856 53.601189,6.1885945 53.568796,5.6135924 53.572112,5.6212262 52.100443,2.7575343 51.364432,1.3252212 50.666219,0.00232823 50.548947,-0.18223646 46.993897,-4.9419547 41.548985,-2.8238573 39.753628,-2.1336626 33.927031,0.59655474 33.591038,1.9184078 33.220581,4.5499352 Z m 16.079591,-5.04887986 c 0.44122,0.52183432 0.640942,0.87303931 1.97713,3.47673996 1.405372,2.7381684 1.400651,2.7275285 1.396267,3.2658275 -0.0028,0.3418975 -0.193371,0.8215801 -0.423412,1.0656747 -0.345859,0.3670004 -0.981964,0.6306492 -1.555057,0.6445394 -0.166062,0.00396 -0.327837,0.013447 -0.359541,0.020913 -0.110373,0.026013 -0.218169,0.3008035 -0.226699,0.5779001 -0.02196,0.7137102 -0.420714,1.2494991 -1.148621,1.543409 -0.34577,0.139613 -0.700287,0.187443 -1.166496,0.157416 -0.352595,-0.02285 -0.360658,-0.02148 -0.474675,0.0721 -0.142604,0.117073 -0.152587,0.149922 -0.141415,0.465447 0.02377,0.671392 -0.221063,1.166125 -0.740394,1.496038 -0.467283,0.296838 -0.886067,0.397253 -1.501672,0.360076 -0.259207,-0.01566 -0.448937,-0.0603 -1.108003,-0.260765 -0.250912,-0.07631 -0.451902,-0.01657 -0.531939,0.158115 l -0.05213,0.11381 1.998086,3.935903 c 2.188427,4.310878 1.796056,3.954811 1.795808,4.516594 -0.216023,0.809601 -0.654811,0.939283 -0.873961,1.068328 -0.487917,0.287307 -0.702032,0.327186 -1.389223,0.163702 -0.257472,-0.06126 -0.611371,-0.379607 -0.80162,-0.534431 C 43.56386,21.475758 43.823856,21.95408 39.867638,14.256357 37.012577,8.7012747 36.205011,7.1520911 36.119535,7.0665776 35.807928,6.7548662 35.310948,6.8720058 35.352199,7.2474524 c 0.01074,0.097802 0.245595,0.5831109 0.920922,1.9029527 l 1.528921,2.9560189 C 37.254581,12.028417 36.459338,11.740699 36.019109,11.52668 34.748415,10.510407 34.362142,9.5226509 33.806472,7.6753381 33.335079,5.66645 33.921052,2.7801596 35.050805,1.7108768 c 1.221205,-1.08950899 6.791848,-3.8880076 9.031001,-4.2163136 1.97353,0.0715 4.064455,0.6888668 5.218366,2.00649538 z"
           id="path552"
           sodipodi:nodetypes="ccscccccsscccssccssccscccccssccssccssssscscsssccsccccccccc" /><path
           style="fill:#2d75ff;fill-opacity:1;stroke-width:0.023697"
           d="m 52.405921,23.220906 c -0.160728,-0.163967 -0.104725,-0.487585 0.10186,-0.58868 0.04394,-0.0215 0.262543,-0.02019 0.736859,0.0044 0.370911,0.01924 0.851598,0.0343 1.068192,0.03349 0.528428,-0.002 0.565101,0.0019 0.639133,0.06716 0.17014,0.150072 0.131352,0.508627 -0.06544,0.60492 -0.120255,0.05885 -0.616055,0.06153 -1.631047,0.0088 -0.709067,-0.03682 -0.766788,-0.04567 -0.84957,-0.130114 z m 3.161266,0.01918 c -0.09155,-0.08333 -0.142307,-0.271663 -0.104025,-0.385981 0.06762,-0.201949 0.172977,-0.253196 0.503994,-0.245167 0.281544,0.0068 0.349107,0.03434 0.429457,0.174872 0.100053,0.174992 0.0134,0.458056 -0.158761,0.518627 -0.0597,0.021 -0.470262,0.02585 -0.565588,0.0067 -0.02065,-0.0041 -0.06794,-0.03522 -0.105078,-0.06902 z M 52.1963,22.068725 c -0.105935,-0.07642 -0.162058,-0.313368 -0.103947,-0.438862 0.07222,-0.155964 0.08198,-0.159848 2.169536,-0.863937 1.119202,-0.377481 2.049527,-0.683391 2.067389,-0.679797 0.01786,0.0037 0.06828,0.03214 0.112045,0.06344 0.182708,0.130673 0.182788,0.447152 2.01e-4,0.584101 -0.05358,0.04017 -1.208866,0.473914 -1.243657,0.466916 -0.0036,-7.33e-4 -0.635905,0.20889 -1.405133,0.465807 -1.431833,0.478222 -1.475812,0.489306 -1.596381,0.402333 z m -1.024116,-0.603614 c -0.117059,-0.0924 -0.15792,-0.296385 -0.09025,-0.450519 0.01996,-0.04547 0.109668,-0.139794 0.213084,-0.224053 0.236147,-0.1924 0.421709,-0.366356 1.021988,-0.95807 0.549964,-0.542117 0.644811,-0.619346 0.76261,-0.620954 0.12876,-0.0018 0.260879,0.126683 0.287748,0.279738 0.03283,0.186999 -0.01188,0.262562 -0.348298,0.588764 -0.158377,0.153566 -0.439234,0.427497 -0.624125,0.608733 -0.405313,0.397301 -0.794163,0.743291 -0.899598,0.800438 -0.09528,0.05165 -0.240988,0.04079 -0.323161,-0.02408 z m -0.334851,-1.347074 c -0.08187,-0.06041 -0.139712,-0.201532 -0.131634,-0.321177 0.0073,-0.108012 0.03213,-0.151976 0.390538,-0.691213 1.134039,-1.706215 1.643136,-2.450573 1.711559,-2.502501 0.155986,-0.118382 0.400669,-0.01965 0.453333,0.182917 0.0445,0.171158 0.01507,0.230553 -0.47692,0.962826 -0.255663,0.380518 -0.69583,1.040261 -0.97815,1.466094 -0.282321,0.425833 -0.543387,0.80595 -0.580146,0.844704 -0.113365,0.119515 -0.273165,0.143511 -0.38858,0.05835 z m -0.996697,-0.226294 c -0.02202,-0.01625 -0.06344,-0.07118 -0.09206,-0.122069 -0.05055,-0.08991 -0.05083,-0.09896 -0.01033,-0.320916 0.06996,-0.383301 0.750106,-2.612534 0.83542,-2.738138 0.03301,-0.04861 0.08645,-0.08396 0.157001,-0.1039 0.14457,-0.04085 0.237611,0.0012 0.324722,0.146488 0.05971,0.09965 0.06458,0.124892 0.04576,0.237547 -0.01159,0.06932 -0.08713,0.337135 -0.167865,0.595131 -0.225355,0.72006 -0.483239,1.582777 -0.56452,1.888528 -0.08095,0.30452 -0.129193,0.388045 -0.257087,0.445133 -0.08154,0.03639 -0.200587,0.02419 -0.271052,-0.02781 z m 7.095497,0.600411 c -0.09847,-0.08369 -0.135405,-0.194873 -0.111684,-0.336211 0.02475,-0.147491 0.10376,-0.24068 0.257815,-0.304105 0.09849,-0.04055 0.15457,-0.04728 0.244617,-0.02935 0.106811,0.02125 0.122683,0.03303 0.185104,0.137192 0.06289,0.10493 0.06646,0.124865 0.04516,0.252287 -0.02933,0.175573 -0.108076,0.256619 -0.311162,0.320254 -0.170215,0.05333 -0.205294,0.0488 -0.309854,-0.04007 z m -3.27773,-1.252179 c -0.114097,-0.08231 -0.162774,-0.320494 -0.09366,-0.458311 0.04714,-0.094 0.37259,-0.379153 0.457291,-0.400669 0.0972,-0.02469 0.251161,0.03512 0.305899,0.11882 0.05119,0.07829 0.08347,0.215036 0.0699,0.296217 -0.0049,0.02926 -0.03047,0.08728 -0.05684,0.12893 -0.06325,0.09988 -0.322354,0.326738 -0.408169,0.357366 -0.07374,0.02632 -0.207944,0.0056 -0.274426,-0.04235 z m -2.661251,-3.324421 c -0.155493,-0.132149 -0.153556,-0.366557 0.005,-0.608231 0.126765,-0.193187 0.303152,-0.233938 0.459041,-0.106048 0.136829,0.112249 0.15062,0.320627 0.03519,0.531772 -0.09432,0.172531 -0.129218,0.208381 -0.232461,0.238764 -0.125894,0.03704 -0.16729,0.02832 -0.266802,-0.05624 z m 2.422645,0.310568 c -0.06841,-0.06979 -0.10825,-0.216265 -0.08945,-0.328832 0.014,-0.0838 0.158021,-0.31687 0.26698,-0.432053 0.23375,-0.247103 0.577679,-0.04696 0.519344,0.302211 -0.02221,0.132939 -0.265095,0.479008 -0.368934,0.525666 -0.09557,0.04294 -0.251389,0.01115 -0.327945,-0.067 z"
           id="path657"
           sodipodi:nodetypes="cssssssscsssssssssssssssssssssssssssssssssssssssssssssssssssssssssssssssssssssssssssssssss" /><path
           style="fill:#2d75ff;fill-opacity:1;stroke-width:0.023697"
           d="m 41.848146,23.812621 c 0.160728,0.163966 0.104724,0.487584 -0.10186,0.588679 -0.04394,0.0215 -0.262543,0.02019 -0.736859,-0.0044 -0.370911,-0.01924 -0.851598,-0.0343 -1.068192,-0.03349 -0.528428,0.002 -0.565101,-0.0019 -0.639133,-0.06716 -0.17014,-0.150072 -0.131352,-0.508627 0.06544,-0.60492 0.120255,-0.05885 0.616054,-0.06153 1.631047,-0.0088 0.709067,0.03682 0.766788,0.04567 0.84957,0.130114 z m -3.161266,-0.01918 c 0.09155,0.08333 0.142307,0.271664 0.104025,0.385982 -0.06762,0.201948 -0.172978,0.253195 -0.503994,0.245166 -0.281545,-0.0068 -0.349107,-0.03434 -0.429457,-0.174871 -0.100053,-0.174993 -0.0134,-0.458057 0.15876,-0.518627 0.0597,-0.021 0.470263,-0.02585 0.565589,-0.0067 0.02065,0.0041 0.06794,0.03522 0.105077,0.06902 z m 3.370887,1.17136 c 0.105935,0.07642 0.162058,0.313367 0.103947,0.438861 -0.07222,0.155964 -0.08198,0.159848 -2.169537,0.863937 -1.119201,0.377482 -2.049526,0.683391 -2.067388,0.679798 -0.01786,-0.0037 -0.06828,-0.03214 -0.112045,-0.06344 -0.182708,-0.130673 -0.182788,-0.447151 -2.01e-4,-0.5841 0.05358,-0.04017 1.208866,-0.473915 1.243657,-0.466917 0.0036,7.33e-4 0.635905,-0.20889 1.405133,-0.465807 1.431833,-0.478222 1.475812,-0.489305 1.596381,-0.402333 z m 1.024116,0.603613 c 0.117059,0.0924 0.15792,0.296385 0.09025,0.450519 -0.01996,0.04547 -0.109668,0.139795 -0.213084,0.224054 -0.236147,0.1924 -0.421709,0.366355 -1.021989,0.95807 -0.549963,0.542116 -0.64481,0.619345 -0.762609,0.620954 -0.12876,0.0018 -0.26088,-0.126684 -0.287748,-0.279739 -0.03283,-0.186998 0.01187,-0.262562 0.348298,-0.588763 0.158377,-0.153567 0.439234,-0.427497 0.624125,-0.608733 0.405313,-0.397302 0.794163,-0.743291 0.899598,-0.800439 0.09528,-0.05165 0.240988,-0.04079 0.323161,0.02408 z m 0.334851,1.347074 c 0.08187,0.06041 0.139712,0.201532 0.131634,0.321178 -0.0073,0.108011 -0.03213,0.151975 -0.390538,0.691213 -1.134039,1.706214 -1.643136,2.450573 -1.711559,2.502501 -0.155986,0.118382 -0.400669,0.01965 -0.453333,-0.182918 -0.0445,-0.171158 -0.01507,-0.230552 0.47692,-0.962825 0.255663,-0.380518 0.69583,-1.040261 0.97815,-1.466094 0.282321,-0.425833 0.543387,-0.805951 0.580146,-0.844704 0.113365,-0.119516 0.273165,-0.143511 0.38858,-0.05835 z m 0.996697,0.226295 c 0.02202,0.01625 0.06344,0.07118 0.09205,0.122069 0.05055,0.08991 0.05083,0.09896 0.01033,0.320916 -0.06996,0.383301 -0.750106,2.612534 -0.83542,2.738137 -0.03301,0.04861 -0.08645,0.08396 -0.157001,0.1039 -0.14457,0.04085 -0.237611,-0.0012 -0.324722,-0.146488 -0.05971,-0.09965 -0.06458,-0.124892 -0.04576,-0.237546 0.01159,-0.06932 0.08713,-0.337135 0.167865,-0.595132 0.225355,-0.72006 0.483239,-1.582777 0.56452,-1.888528 0.08095,-0.30452 0.129193,-0.388045 0.257087,-0.445133 0.08154,-0.03639 0.200587,-0.02419 0.271051,0.02781 z m -7.095497,-0.600412 c 0.09847,0.08369 0.135405,0.194874 0.111683,0.336211 -0.02475,0.147491 -0.103759,0.24068 -0.257814,0.304106 -0.09849,0.04055 -0.15457,0.04728 -0.244617,0.02935 -0.106811,-0.02125 -0.122683,-0.03303 -0.185105,-0.137191 -0.06289,-0.104931 -0.06645,-0.124866 -0.04516,-0.252288 0.02933,-0.175573 0.108076,-0.256618 0.311162,-0.320254 0.170215,-0.05333 0.205294,-0.0488 0.309854,0.04007 z m 3.27773,1.252179 c 0.114097,0.08231 0.162774,0.320494 0.09366,0.458311 -0.04714,0.094 -0.37259,0.379154 -0.457291,0.40067 -0.0972,0.02469 -0.251161,-0.03512 -0.305899,-0.118821 -0.05119,-0.07829 -0.08347,-0.215035 -0.0699,-0.296217 0.0049,-0.02926 0.03047,-0.08728 0.05684,-0.12893 0.06325,-0.09988 0.322354,-0.326737 0.408168,-0.357366 0.07374,-0.02632 0.207945,-0.0056 0.274427,0.04235 z m 2.661251,3.324421 c 0.155493,0.13215 0.153556,0.366557 -0.005,0.608231 -0.126765,0.193188 -0.303153,0.233939 -0.459042,0.106058 -0.136828,-0.112248 -0.150619,-0.320626 -0.03519,-0.531771 0.09432,-0.172531 0.129218,-0.20838 0.232462,-0.238764 0.125894,-0.03704 0.16729,-0.02832 0.266802,0.05624 z m -2.422646,-0.310567 c 0.06841,0.06979 0.108251,0.216265 0.08945,0.328832 -0.014,0.0838 -0.158021,0.31687 -0.26698,0.432052 -0.23375,0.247104 -0.577679,0.04696 -0.519344,-0.30221 0.02221,-0.132939 0.265094,-0.479008 0.368934,-0.525667 0.09557,-0.04294 0.251389,-0.01115 0.327945,0.067 z"
           id="path657-0"
           sodipodi:nodetypes="cssssssscsssssssssssssssssssssssssssssssssssssssssssssssssssssssssssssssssssssssssssssssss" /></g></g></g></svg>
