<?xml version="1.0" encoding="UTF-8" standalone="no"?>
<!-- Generator: Adobe Illustrator 27.2.0, SVG Export Plug-In . SVG Version: 6.00 Build 0)  -->

<svg
   version="1.1"
   id="Capa_1"
   x="0px"
   y="0px"
   viewBox="0 0 390.5 96.8"
   style="enable-background:new 0 0 390.5 96.8;"
   xml:space="preserve"
   sodipodi:docname="want-logo.svg"
   inkscape:version="1.2.2 (732a01da63, 2022-12-09)"
   xmlns:inkscape="http://www.inkscape.org/namespaces/inkscape"
   xmlns:sodipodi="http://sodipodi.sourceforge.net/DTD/sodipodi-0.dtd"
   xmlns="http://www.w3.org/2000/svg"
   xmlns:svg="http://www.w3.org/2000/svg"><defs
   id="defs23" /><sodipodi:namedview
   id="namedview21"
   pagecolor="#ffffff"
   bordercolor="#000000"
   borderopacity="0.25"
   inkscape:showpageshadow="2"
   inkscape:pageopacity="0.0"
   inkscape:pagecheckerboard="0"
   inkscape:deskcolor="#d1d1d1"
   showgrid="false"
   inkscape:zoom="0.54775877"
   inkscape:cx="1040.6041"
   inkscape:cy="337.73991"
   inkscape:window-width="1920"
   inkscape:window-height="1017"
   inkscape:window-x="-8"
   inkscape:window-y="-8"
   inkscape:window-maximized="1"
   inkscape:current-layer="Capa_1" />
<style
   type="text/css"
   id="style2">
	.st0{fill:#4FC68D;}
</style>
<g
   id="g18"
   style="fill:var(--color-primary);fill-opacity:1">
	<g
   id="g14"
   style="fill:var(--color-primary);fill-opacity:1">
		<g
   id="g10"
   style="fill:var(--color-primary);fill-opacity:1">
			<path
   class="st0"
   d="M193.8,20.6c1.4-1,3-1.5,4.7-1.5c2.5,0,4.8,0.9,6.8,2.6c2,1.7,3,3.8,3,6.3c0,1.2-0.3,2.4-0.9,3.8L188.7,72     c-0.9,1.9-2.1,3.4-3.9,4.5s-3.6,1.6-5.7,1.6s-4-0.5-5.7-1.6c-1.7-1-3-2.5-3.8-4.5l-11-24.4L148.2,72c-0.8,1.9-2,3.4-3.8,4.5     c-1.7,1-3.6,1.6-5.7,1.6s-4-0.5-5.7-1.6c-1.7-1-3.1-2.5-4-4.5l-18.6-40.2c-0.5-1.2-0.8-2.4-0.8-3.7c0-2.5,1.1-4.7,3.2-6.4     c2.1-1.7,4.5-2.6,7.1-2.6c1.9,0,3.5,0.5,5,1.5s2.6,2.5,3.4,4.5l11,26.8l11.2-26.6c0.8-1.9,2-3.4,3.6-4.4s3.4-1.5,5.2-1.5     s3.6,0.5,5.2,1.5c1.6,1,2.8,2.5,3.6,4.4l11.6,26.8l10.8-27C191.3,23,192.4,21.5,193.8,20.6L193.8,20.6z"
   id="path4"
   style="fill:var(--color-primary);fill-opacity:1" />
			<path
   class="st0"
   d="M330.5,25c3.3,4,5,10.2,5,18.5v25c0,2.9-0.9,5.2-2.8,7c-1.8,1.7-4.4,2.5-7.5,2.5s-5.7-0.9-7.5-2.5     c-1.8-1.7-2.8-4-2.8-7V44.4c0-3.4-0.6-5.9-1.8-7.4c-1.2-1.5-3-2.3-5.4-2.3c-3.1,0-5.5,1-7.4,3s-2.7,4.6-2.7,7.9v22.9     c0,2.9-0.9,5.2-2.8,7c-1.8,1.7-4.4,2.5-7.5,2.5s-5.7-0.9-7.5-2.5c-1.8-1.7-2.8-4-2.8-7V28.4c0-2.7,1-4.9,2.9-6.7     c1.9-1.7,4.4-2.6,7.5-2.6s5.3,0.8,7,2.4s2.6,3.8,2.6,6.4c2-2.9,4.6-5.2,7.8-6.7c3.2-1.5,6.7-2.3,10.5-2.3     C322.1,18.9,327.2,20.9,330.5,25L330.5,25z"
   id="path6"
   style="fill:var(--color-primary);fill-opacity:1" />
			<path
   class="st0"
   d="M390.5,70.2c0,2.7-1,4.7-3.1,6c-2.1,1.3-5.1,1.9-8.9,1.6l-3.2-0.2c-7-0.5-12.2-2.6-15.8-6.3     c-3.6-3.7-5.4-8.8-5.4-15.4V34.4h-3.4c-6.2,0-9.3-2.5-9.3-7.6s3.1-7.5,9.3-7.5h3.4v-5.5c0-2.9,0.9-5.3,2.8-7s4.4-2.6,7.5-2.6     s5.7,0.9,7.5,2.6s2.8,4.1,2.8,7v5.5h6.4c6.2,0,9.3,2.5,9.3,7.5s-3.1,7.6-9.3,7.6h-6.4v23.2c0,1.5,0.4,2.7,1.3,3.7     c0.9,1,2,1.5,3.4,1.6l3.4,0.2C387.9,63.6,390.5,65.9,390.5,70.2L390.5,70.2z"
   id="path8"
   style="fill:var(--color-primary);fill-opacity:1" />
		</g>
		<path
   class="st0"
   d="M260.8,19.1c-3.3,0-6.3,1.6-8.2,4.1c-4.3-2.5-9.3-3.9-14.7-3.9c-16.3,0-29.5,13.2-29.5,29.5    s13.2,29.5,29.5,29.5c5.4,0,10.4-1.5,14.8-4c1.9,2.4,4.8,4,8.1,4c5.7,0,10.3-4.6,10.3-10.3V29.4C271.1,23.8,266.4,19.1,260.8,19.1    L260.8,19.1z M237.9,62.9c-7.9,0-14.4-6.4-14.4-14.4s6.4-14.4,14.4-14.4s14.4,6.4,14.4,14.4S245.8,62.9,237.9,62.9z"
   id="path12"
   style="fill:var(--color-primary);fill-opacity:1" />
	</g>
	<path
   class="st0"
   d="M49.2,0c-0.9,0-1.8,0-2.7,0.1c-0.1,0-0.3,0-0.5,0c-0.8,0-1.5,0.1-2.3,0.2c-0.1,0-0.2,0-0.3,0   c-0.8,0.1-1.7,0.2-2.5,0.4c0,0,0,0-0.1,0C40,0.9,39.1,1,38.3,1.2c0.6,0.1,1.2,0.2,1.8,0.5c2.2,0.8,4.1,2.5,5.1,4.8l-8.3,3.8   l12.5,27.5c1.1,2.3,0,5.1-2.3,6.2l0,0c-2.5,1.1-5.5,0-6.6-2.5l-5.9-13l-9.6,4.4c-4.4,2-9.5,0-11.5-4.3l0,0l-3.9-8.7   c-0.7,0.9-1.4,1.9-2,2.9c-0.1,0.1-0.1,0.2-0.2,0.3c-0.2,0.4-0.5,0.8-0.7,1.2c-0.1,0.2-0.2,0.4-0.3,0.6c-0.2,0.4-0.4,0.8-0.6,1.2   c-0.1,0.2-0.2,0.4-0.4,0.7c-0.2,0.4-0.4,0.8-0.6,1.2c-0.1,0.2-0.2,0.4-0.3,0.6c-0.3,0.7-0.6,1.4-0.9,2.1c-0.1,0.3-0.2,0.6-0.4,0.9   c-0.1,0.3-0.2,0.7-0.4,1s-0.2,0.7-0.4,1c-0.1,0.3-0.2,0.7-0.3,1c-0.1,0.4-0.2,0.8-0.3,1.2c-0.1,0.3-0.2,0.6-0.2,0.9   c-0.1,0.6-0.3,1.2-0.4,1.7C1,38.6,1,38.8,0.9,39c-0.1,0.6-0.2,1.2-0.3,1.8c0,0.3-0.1,0.5-0.1,0.8c-0.1,0.5-0.1,1-0.2,1.5   c0,0.3-0.1,0.5-0.1,0.8c0,0.5-0.1,1-0.1,1.5c0,0.2,0,0.5,0,0.7C0,46.9,0,47.6,0,48.4c0,26.7,22,48.4,49.2,48.4c0.9,0,1.8,0,2.7-0.1   c0.1,0,0.3,0,0.4,0c0.8,0,1.5-0.1,2.3-0.2c0.1,0,0.1,0,0.2,0c0.8-0.1,1.7-0.2,2.5-0.3c0,0,0,0,0,0c0.9-0.1,1.7-0.3,2.6-0.5   c-0.7-0.1-1.4-0.2-2.1-0.5c-2.2-0.8-4.1-2.5-5.1-4.8l8.3-3.8L48.6,59.4c-1.1-2.5,0-5.5,2.5-6.6c2.3-1.1,5.1,0,6.1,2.3l6,13.3L73,64   c4.4-2,9.5,0,11.5,4.3l0,0l4.1,9c0.1-0.1,0.1-0.2,0.2-0.2c0.4-0.5,0.7-1,1.1-1.5c0.1-0.2,0.3-0.4,0.4-0.6c0.3-0.4,0.5-0.8,0.8-1.2   c0.1-0.2,0.3-0.5,0.4-0.7c0.2-0.4,0.5-0.8,0.7-1.2c0.1-0.2,0.3-0.5,0.4-0.7c0.3-0.5,0.5-1,0.8-1.5c0.1-0.1,0.1-0.3,0.2-0.4   c0.3-0.6,0.6-1.3,0.9-1.9c0.1-0.2,0.2-0.4,0.3-0.6c0.2-0.5,0.4-0.9,0.6-1.4c0.1-0.2,0.2-0.5,0.3-0.8c0.2-0.5,0.3-0.9,0.5-1.4   c0.1-0.2,0.2-0.5,0.2-0.8c0.1-0.5,0.3-1,0.4-1.5c0-0.2,0.1-0.4,0.2-0.6c0.2-0.7,0.4-1.4,0.5-2.1c0-0.1,0.1-0.3,0.1-0.5   c0.1-0.6,0.2-1.1,0.3-1.7c0-0.2,0.1-0.5,0.1-0.8c0.1-0.5,0.1-1,0.2-1.5c0-0.3,0.1-0.5,0.1-0.8c0-0.5,0.1-1,0.1-1.6   c0-0.2,0-0.5,0-0.7c0-0.8,0.1-1.5,0.1-2.3C98.4,21.7,76.3,0,49.2,0L49.2,0z M32.7,45.2l9.9,4.6l-10.9-1.2L32.7,45.2L32.7,45.2z    M31.8,53.5l10.6-2.9l-9.1,6.1L31.8,53.5z M40,62.3l-3.2-1.5l6.3-9L40,62.3L40,62.3z M57.2,34.7l3.2,1.5l-6.3,9L57.2,34.7   L57.2,34.7z M64,39.5l1.5,3.2l-10.6,2.9L64,39.5z M65.3,51.5l-9.9-4.6l10.9,1.2L65.3,51.5L65.3,51.5z"
   id="path16"
   style="fill:var(--color-primary);fill-opacity:1" />
</g>
</svg>
